<?xml version="1.0" encoding="UTF-8" standalone="no"?>
<svg
   xmlns:dc="http://purl.org/dc/elements/1.1/"
   xmlns:cc="http://creativecommons.org/ns#"
   xmlns:rdf="http://www.w3.org/1999/02/22-rdf-syntax-ns#"
   xmlns:svg="http://www.w3.org/2000/svg"
   xmlns="http://www.w3.org/2000/svg"
   xmlns:sodipodi="http://sodipodi.sourceforge.net/DTD/sodipodi-0.dtd"
   xmlns:inkscape="http://www.inkscape.org/namespaces/inkscape"
   width="210mm"
   height="297mm"
   viewBox="0 0 210 297"
   version="1.1"
   id="svg8"
   inkscape:version="1.0.2 (1.0.2+r75+1)"
   sodipodi:docname="peixeCirculos.svg">
  <defs
     id="defs2" />
  <sodipodi:namedview
     id="base"
     pagecolor="#ffffff"
     bordercolor="#666666"
     borderopacity="1.0"
     inkscape:pageopacity="0.0"
     inkscape:pageshadow="2"
     inkscape:zoom="0.7"
     inkscape:cx="542.67505"
     inkscape:cy="526.13941"
     inkscape:document-units="mm"
     inkscape:current-layer="layer1"
     inkscape:document-rotation="0"
     showgrid="false"
     inkscape:snap-global="false"
     inkscape:window-width="1680"
     inkscape:window-height="1022"
     inkscape:window-x="0"
     inkscape:window-y="0"
     inkscape:window-maximized="1" />
  <metadata
     id="metadata5">
    <rdf:RDF>
      <cc:Work
         rdf:about="">
        <dc:format>image/svg+xml</dc:format>
        <dc:type
           rdf:resource="http://purl.org/dc/dcmitype/StillImage" />
        <dc:title />
      </cc:Work>
    </rdf:RDF>
  </metadata>
  <g
     inkscape:label="Capa 1"
     inkscape:groupmode="layer"
     id="layer1">
    <g
       id="g864"
       inkscape:export-xdpi="240"
       inkscape:export-ydpi="240">
      <circle
         style="fill:#fd6200;stroke-width:1.5;stop-color:#000000;fill-opacity:1"
         id="path833"
         cx="103.83551"
         cy="111.93221"
         r="52.714134" />
      <g
         id="g892">
        <circle
           style="fill:#ff6600;stroke-width:0.670728;stop-color:#000000"
           id="circle835"
           cx="62.986073"
           cy="111.86089"
           r="23.571257" />
        <circle
           style="fill:#ffffff;stroke-width:0.475456;stop-color:#000000"
           id="circle839"
           cx="62.986073"
           cy="111.86089"
           r="16.708845" />
        <circle
           style="fill:#000000;stroke-width:0.292268;stop-color:#000000"
           id="circle841"
           cx="62.986073"
           cy="111.86089"
           r="10.271092" />
        <circle
           style="fill:#ffffff;stroke-width:0.0597007;stop-color:#000000"
           id="circle843"
           cx="59.349319"
           cy="116.53665"
           r="2.0980442" />
        <path
           id="path853"
           style="fill:#a02c2c;stroke-width:1.5;stop-color:#000000"
           d="m 61.480736,86.347685 c 3.467665,1.713094 10.885625,-1.159023 15.385326,0.956087 3.343951,1.571843 3.421507,-2.995354 3.421507,-6.69031 0,-3.694956 0.273449,-6.69031 -3.421507,-6.69031 -3.694956,0 -18.698082,10.787968 -15.385326,12.424533 z"
           sodipodi:nodetypes="sssss" />
      </g>
      <g
         id="g873"
         transform="matrix(-1,0,0,1,207.70389,0)">
        <circle
           style="fill:#ff6600;stroke-width:0.670728;stop-color:#000000"
           id="circle863"
           cx="62.986073"
           cy="111.86089"
           r="23.571257" />
        <circle
           style="fill:#ffffff;stroke-width:0.475456;stop-color:#000000"
           id="circle865"
           cx="62.986073"
           cy="111.86089"
           r="16.708845" />
        <circle
           style="fill:#000000;stroke-width:0.292268;stop-color:#000000"
           id="circle867"
           cx="62.986073"
           cy="111.86089"
           r="10.271092" />
        <circle
           style="fill:#ffffff;stroke-width:0.0597007;stop-color:#000000"
           id="circle869"
           cx="66.705711"
           cy="116.53665"
           r="2.0980442" />
        <path
           id="path871"
           style="fill:#a02c2c;stroke-width:1.5;stop-color:#000000"
           d="m 61.160193,86.347685 c 3.467665,1.713094 10.885625,-1.159023 15.385326,0.956087 3.343951,1.571843 3.421507,-2.995354 3.421507,-6.69031 0,-3.694956 0.273449,-6.69031 -3.421507,-6.69031 -3.694956,0 -18.698082,10.787968 -15.385326,12.424533 z"
           sodipodi:nodetypes="sssss" />
      </g>
      <path
         id="path875"
         style="fill:#a02c2c;stroke-width:1.96762;stop-color:#000000"
         d="m 130.09221,140.40069 c 0,6.50609 -10.91271,11.78033 -24.37422,11.78033 -13.46151,0 -24.374221,-5.27424 -24.374223,-11.78033 2e-6,-6.50609 11.756112,3.3519 25.217623,3.3519 13.46151,0 23.53082,-9.85799 23.53082,-3.3519 z"
         sodipodi:nodetypes="sssss" />
      <path
         id="path878"
         style="fill:#ffffff;stroke-width:1.54186;stop-color:#000000"
         d="m 125.37998,141.25637 c 0,5.09828 -8.55137,6.81341 -19.10004,6.81341 -10.548665,0 -19.10003,-1.71513 -19.10003,-6.81341 0,-5.09829 9.212269,0.20877 19.76094,0.20877 10.54866,0 18.43913,-5.30706 18.43913,-0.20877 z"
         sodipodi:nodetypes="sssss" />
      <path
         id="path885"
         style="fill:#a02c2c;stroke-width:1.97665;stop-color:#000000"
         d="m 40.625784,146.59949 c 7.729503,-1.22995 27.624136,-0.74911 30.001416,-1.08709 0,-4.86911 0.360342,-8.81629 -4.508757,-8.81629 -4.869099,0 -29.858107,7.74676 -25.492659,9.90338 z"
         sodipodi:nodetypes="ccsc" />
      <path
         id="path894"
         style="fill:#a02c2c;stroke-width:1.97665;stop-color:#000000"
         d="m 169.12135,146.59949 c -7.72951,-1.22995 -27.62414,-0.74911 -30.00142,-1.08709 0,-4.86911 -0.36034,-8.81629 4.50876,-8.81629 4.8691,0 29.8581,7.74676 25.49266,9.90338 z"
         sodipodi:nodetypes="ccsc" />
    </g>
  </g>
</svg>
