<?xml version="1.0" encoding="UTF-8" standalone="no"?>
<svg
   xmlns:dc="http://purl.org/dc/elements/1.1/"
   xmlns:cc="http://creativecommons.org/ns#"
   xmlns:rdf="http://www.w3.org/1999/02/22-rdf-syntax-ns#"
   xmlns:svg="http://www.w3.org/2000/svg"
   xmlns="http://www.w3.org/2000/svg"
   xmlns:sodipodi="http://sodipodi.sourceforge.net/DTD/sodipodi-0.dtd"
   xmlns:inkscape="http://www.inkscape.org/namespaces/inkscape"
   width="210mm"
   height="297mm"
   viewBox="0 0 210 297"
   version="1.1"
   id="svg8"
   inkscape:version="1.0.2 (1.0.2+r75+1)"
   sodipodi:docname="raposa.svg">
  <defs
     id="defs2" />
  <sodipodi:namedview
     id="base"
     pagecolor="#ffffff"
     bordercolor="#666666"
     borderopacity="1.0"
     inkscape:pageopacity="0.0"
     inkscape:pageshadow="2"
     inkscape:zoom="0.49497475"
     inkscape:cx="139.29208"
     inkscape:cy="715.65713"
     inkscape:document-units="mm"
     inkscape:current-layer="layer1"
     inkscape:document-rotation="0"
     showgrid="false"
     inkscape:snap-global="true"
     inkscape:window-width="1680"
     inkscape:window-height="1022"
     inkscape:window-x="0"
     inkscape:window-y="0"
     inkscape:window-maximized="1">
    <inkscape:grid
       type="xygrid"
       id="grid833" />
  </sodipodi:namedview>
  <metadata
     id="metadata5">
    <rdf:RDF>
      <cc:Work
         rdf:about="">
        <dc:format>image/svg+xml</dc:format>
        <dc:type
           rdf:resource="http://purl.org/dc/dcmitype/StillImage" />
        <dc:title></dc:title>
      </cc:Work>
    </rdf:RDF>
  </metadata>
  <g
     inkscape:label="Capa 1"
     inkscape:groupmode="layer"
     id="layer1">
    <g
       id="g890"
       transform="translate(2.14108)">
      <path
         id="path840"
         style="fill:#d45500;fill-opacity:1;stroke:none;stroke-width:1.39061;stop-color:#000000"
         inkscape:transform-center-x="0.97250608"
         inkscape:transform-center-y="-1.7164928"
         d="M 32.477827,98.780952 C 47.561343,103.6336 70.971016,82.377935 67.592327,66.897458 64.213639,51.41698 16.14626,29.542491 7.8357684,37.088292 -0.47470493,44.634097 17.394311,93.928303 32.477827,98.780952 Z"
         sodipodi:nodetypes="ssss" />
      <path
         id="path844"
         style="fill:#d45500;fill-opacity:1;stroke:none;stroke-width:1.39061;stop-color:#000000"
         inkscape:transform-center-x="-0.97250881"
         inkscape:transform-center-y="-1.7164928"
         d="m 174.58738,98.780952 c -15.08352,4.852648 -38.49319,-16.403017 -35.1145,-31.883494 3.37869,-15.480478 51.44605,-37.354967 59.75657,-29.809166 8.31046,7.545805 -9.55857,56.840011 -24.64207,61.69266 z"
         sodipodi:nodetypes="ssss" />
      <path
         id="path846"
         style="fill:#803300;fill-opacity:1;stroke:none;stroke-width:0.866754;stop-color:#000000"
         inkscape:transform-center-x="-0.60615273"
         inkscape:transform-center-y="-1.0698771"
         d="m 169.50358,91.69727 c -9.40145,3.024622 -23.99253,-10.223885 -21.88663,-19.872758 2.10591,-9.648874 32.06598,-23.283086 37.24585,-18.579842 5.17986,4.703246 -5.95777,35.427977 -15.35922,38.4526 z"
         sodipodi:nodetypes="ssss" />
      <path
         id="path842"
         style="fill:#803300;fill-opacity:1;stroke:none;stroke-width:0.866754;stop-color:#000000"
         inkscape:transform-center-x="0.60615588"
         inkscape:transform-center-y="-1.0698771"
         d="M 37.561627,91.69727 C 46.963076,94.721892 61.55416,81.473385 59.448246,71.824512 57.342334,62.175638 27.382274,48.541426 22.202406,53.24467 c -5.179862,4.703246 5.95777,35.427977 15.359221,38.4526 z"
         sodipodi:nodetypes="ssss" />
      <path
         style="fill:#d45500;stroke:none;stroke-width:2.74908;stop-color:#000000"
         d="M 4.3753619,140.11376 C 51.113174,23.024212 147.06783,-1.100024 198.33827,140.11376 l -96.98146,72.73608 z"
         id="path835"
         sodipodi:nodetypes="cccc" />
      <path
         style="fill:#1a1a1a;stroke:none;stroke-width:2.74908;stop-color:#000000"
         d="m 116.53582,201.46559 -15.17901,11.38425 -15.987652,-11.99075 c -9.422764,-9.02442 41.334292,-7.64558 31.166662,0.6065 z"
         id="path848"
         sodipodi:nodetypes="cccc" />
      <path
         id="path850"
         style="opacity:1;fill:#ffeeaa;fill-opacity:1;stroke:none;stroke-width:2.4846;stop-color:#000000"
         d="m 172.82286,96.657731 a 64.456739,64.456739 0 0 0 -64.45667,64.456669 64.456739,64.456739 0 0 0 12.00997,37.47046 l 77.96211,-58.4711 C 192.28699,123.44677 185.6131,109.08543 178.47128,96.905868 a 64.456739,64.456739 0 0 0 -5.64842,-0.248137 z" />
      <path
         id="path860"
         style="opacity:1;fill:#ffeeaa;fill-opacity:1;stroke:none;stroke-width:2.4846;stop-color:#000000"
         d="M 29.890772,96.657732 A 64.45674,64.45674 0 0 1 94.347438,161.11441 64.45674,64.45674 0 0 1 82.337456,198.58486 L 4.3753619,140.11376 C 10.42664,123.44677 17.100527,109.08543 24.242346,96.90587 a 64.45674,64.45674 0 0 1 5.648426,-0.248138 z" />
      <g
         id="g868"
         transform="matrix(1.8327204,0,0,1.8327204,-102.26791,181.7928)">
        <circle
           style="opacity:1;fill:#241f1c;fill-opacity:1;stroke:none;stroke-width:1.5;stop-color:#000000"
           id="path862"
           cx="125.67708"
           cy="-14.552083"
           r="3.96875" />
        <circle
           style="opacity:1;fill:#ffffff;fill-opacity:1;stroke:none;stroke-width:0.329304;stop-color:#000000"
           id="circle864"
           cx="123.25671"
           cy="-14.464604"
           r="0.87128371" />
      </g>
      <g
         id="g874"
         transform="matrix(1.8327204,0,0,1.8327204,-153.14909,181.7928)">
        <circle
           style="opacity:1;fill:#241f1c;fill-opacity:1;stroke:none;stroke-width:1.5;stop-color:#000000"
           id="circle870"
           cx="125.67708"
           cy="-14.552083"
           r="3.96875" />
        <circle
           style="opacity:1;fill:#ffffff;fill-opacity:1;stroke:none;stroke-width:0.329304;stop-color:#000000"
           id="circle872"
           cx="123.25671"
           cy="-14.464604"
           r="0.87128371" />
      </g>
    </g>
  </g>
</svg>
